<svg fill="none" height="16" viewBox="0 0 17 16" width="17" xmlns="http://www.w3.org/2000/svg" xmlns:xlink="http://www.w3.org/1999/xlink"><clipPath id="a"><path d="m.5 0h16v16h-16z"/></clipPath><g clip-path="url(#a)" fill="#e5c35c"><path d="m15.8277 1.91246h-3.3613v-1.239059c0-.370371-.3025-.673401-.6723-.673401-.3697 0-.6723.30303-.6723.673401v1.239059h-5.24365v-1.239059c0-.370371-.30252-.673401-.67227-.673401s-.67227.30303-.67227.673401v1.239059h-3.36134c-.369749 0-.67227.30303-.67227.6734v12.74074c0 .3704.302521.6734.67227.6734h14.65543c.3698 0 .6723-.303.6723-.6734v-12.74074c0-.37037-.3025-.6734-.6723-.6734zm-11.29409 1.3468v1.00337c0 .37037.30252.6734.67227.6734s.67227-.30303.67227-.6734v-1.00337h5.24365v1.00337c0 .37037.3026.6734.6723.6734.3698 0 .6723-.30303.6723-.6734v-1.00337h2.6891v2.88889h-13.31096v-2.88889zm-2.68907 11.39394v-7.15825h13.31096v7.15825z"/><path d="m5.91836 8.71973h-1.41177c-.10395 0-.18823.08441-.18823.18855v1.41412c0 .1042.08428.1886.18823.1886h1.41177c.10396 0 .18823-.0844.18823-.1886v-1.41412c0-.10414-.08427-.18855-.18823-.18855z"/><path d="m9.20596 8.71973h-1.41177c-.10396 0-.18823.08441-.18823.18855v1.41412c0 .1042.08427.1886.18823.1886h1.41177c.10396 0 .18823-.0844.18823-.1886v-1.41412c0-.10414-.08427-.18855-.18823-.18855z"/><path d="m12.4936 8.71973h-1.4118c-.104 0-.1882.08441-.1882.18855v1.41412c0 .1042.0842.1886.1882.1886h1.4118c.1039 0 .1882-.0844.1882-.1886v-1.41412c0-.10414-.0843-.18855-.1882-.18855z"/><path d="m5.91836 11.6504h-1.41177c-.10395 0-.18823.0844-.18823.1885v1.4142c0 .1041.08428.1885.18823.1885h1.41177c.10396 0 .18823-.0844.18823-.1885v-1.4142c0-.1041-.08427-.1885-.18823-.1885z"/><path d="m9.20596 11.6504h-1.41177c-.10396 0-.18823.0844-.18823.1885v1.4142c0 .1041.08427.1885.18823.1885h1.41177c.10396 0 .18823-.0844.18823-.1885v-1.4142c0-.1041-.08427-.1885-.18823-.1885z"/><path d="m12.4936 11.6504h-1.4118c-.104 0-.1882.0844-.1882.1885v1.4142c0 .1041.0842.1885.1882.1885h1.4118c.1039 0 .1882-.0844.1882-.1885v-1.4142c0-.1041-.0843-.1885-.1882-.1885z"/></g></svg>