<svg fill="none" height="20" viewBox="0 0 20 20" width="20" xmlns="http://www.w3.org/2000/svg"><path d="m5.26316 13.3684h9.47364v.9474c0 .2105 0 .3158.2106.421.1052.1053.3158.2106.421.2106.2105 0 .3158 0 .4211-.2106.1052-.1052.2105-.3157.2105-.421v-3.4737c0-.5263-.1053-.94736-.4211-1.26315-.3157-.42105-.6315-.63158-1.1578-.73685v-1.57894c0-.52632-.2106-.94737-.5264-1.36842-.3158-.42106-.8421-.52632-1.3684-.52632h-5.05262c-.52631 0-.94736.21053-1.36842.52632-.42105.42105-.52631.8421-.52631 1.36842v1.57894c-.42106.10527-.84211.3158-1.1579.73685s-.42105.84215-.42105 1.26315v3.4737c0 .2105 0 .3158.21053.421.10526.1053.31579.2106.42105.2106s.31579 0 .42105-.2106c.10527-.2105.21053-.3157.21053-.421zm0-1.2631v-1.2632c0-.2105 0-.421.21052-.6316.21053-.2105.42106-.2105.63158-.2105h7.68424c.2105 0 .421 0 .6316.2105.2105.2106.2105.4211.2105.6316v1.2632zm1.57895-3.36846v-1.78947-.21053h.21052 5.68417.2106v.21053 1.78947h-6.31582zm-4.94737 11.26316c-.52632 0-.947372-.2105-1.368424-.5263-.421053-.3158-.526316-.8421-.526316-1.3684v-16.21056c0-.52632.210526-.947372.526316-1.368424.315789-.421053.842104-.526316 1.368424-.526316h16.21056c.5263 0 .9473.210526 1.3684.526316.421.315789.5263.842104.5263 1.368424v16.21056c0 .5263-.2105.9473-.5263 1.3684-.3158.421-.8421.5263-1.3684.5263z" fill="#002d74"/></svg>