<svg fill="none" height="16" viewBox="0 0 16 16" width="16" xmlns="http://www.w3.org/2000/svg"><path d="m8 8c-1.1 0-2.04167-.39167-2.825-1.175s-1.175-1.725-1.175-2.825.39167-2.04167 1.175-2.825c.78333-.783333 1.725-1.175 2.825-1.175s2.0417.391667 2.825 1.175c.7833.78333 1.175 1.725 1.175 2.825s-.3917 2.04167-1.175 2.825-1.725 1.175-2.825 1.175zm-8 6v-.8c0-.5667.145833-1.0875.4375-1.5625s.67917-.8375 1.1625-1.0875c1.03333-.5167 2.08333-.90417 3.15-1.1625s2.15-.3875 3.25-.3875 2.1833.12917 3.25.3875 2.1167.6458 3.15 1.1625c.4833.25.8708.6125 1.1625 1.0875s.4375.9958.4375 1.5625v.8c0 .55-.1958 1.0208-.5875 1.4125s-.8625.5875-1.4125.5875h-12c-.55 0-1.020833-.1958-1.4125-.5875s-.5875-.8625-.5875-1.4125z" fill="#002d74"/></svg>