<svg fill="none" height="42" viewBox="0 0 42 42" width="42" xmlns="http://www.w3.org/2000/svg"><path d="m17.4738 5.67566c-5.9601 1.38535-10.61516 6.20624-11.79802 12.28044m18.85062-12.28044c5.9601 1.38535 10.6152 6.20624 11.798 12.28044m-18.8506 18.3682c-5.9601-1.3853-10.61516-6.2063-11.79802-12.2804m18.85062 12.2804c5.9601-1.3853 10.6152-6.2063 11.798-12.2804" stroke="#d6b44d" stroke-width=".8"/><path d="m41.7718 20.7371-15.4021-1.6367c-.1488-.4166-.3423-.8134-.5804-1.1805l2.2967-3.7c.119-.1934-.1042-.4117-.2927-.2926l-3.7005 2.2964c-.367-.2381-.7639-.4315-1.1806-.5803l-1.6419-15.405327c-.0347-.3174306-.496-.3174306-.5307 0l-1.637 15.400327c-.4166.1488-.8135.3422-1.1805.5803l-3.7005-2.2964c-.1935-.119-.4118.1042-.2927.2926l2.2967 3.7001c-.2381.367-.4316.7638-.5804 1.1804l-15.407099 1.6417c-.317468.0347-.317468.496 0 .5307l15.402199 1.6368c.1488.4166.3422.8134.5803 1.1804l-2.2967 3.7001c-.119.1934.1042.4116.2927.2926l3.7005-2.2964c.3671.2381.7639.4315 1.1806.5803l1.6369 15.4003c.0347.3175.4961.3175.5308 0l1.6369-15.4003c.4167-.1488.8135-.3422 1.1806-.5803l3.7005 2.2964c.1934.119.4117-.1042.2927-.2926l-2.2967-3.7001c.2381-.367.4315-.7638.5803-1.1804l15.4022-1.6368c.3175-.0347.3175-.496 0-.5307zm-20.7644 2.47c-1.2153 0-2.2024-.987-2.2024-2.2021 0-1.2152.9871-2.2022 2.2024-2.2022s2.2025.987 2.2025 2.2022c0 1.2151-.9872 2.2021-2.2025 2.2021z" fill="#d6b44d"/></svg>