<svg fill="none" height="13" viewBox="0 0 14 13" width="14" xmlns="http://www.w3.org/2000/svg"><path d="m4.22977 10.5405c-.35498 0-.65545-.1229-.90139-.3689-.24595-.24592-.36892-.54639-.36892-.90137v-7.99992c0-.354981.12297-.655445.36892-.901391.24594-.245946.54641-.368919.90139-.368919h7.99993c.355 0 .6554.122973.9014.368919.2459.245946.3689.54641.3689.901391v7.99992c0 .35498-.123.65545-.3689.90137-.246.246-.5464.3689-.9014.3689zm0-1.05401h7.99993c.0541 0 .1036-.02255.1486-.06764.0451-.04497.0676-.09451.0676-.14862v-7.99992c0-.05411-.0225-.10365-.0676-.14862-.045-.04509-.0945-.06764-.1486-.06764h-7.99993c-.05411 0-.10365.02255-.14862.06764-.04509.04497-.06764.09451-.06764.14862v7.99992c0 .05411.02255.10365.06764.14862.04497.04509.09451.06764.14862.06764zm-2.45946 3.51351c-.35498 0-.65545-.123-.901391-.3689-.245946-.246-.368919-.5464-.368919-.9014v-8.52696c0-.14956.050478-.27481.151432-.37577.100838-.10084.226036-.15125.375598-.15125.14956 0 .27481.05041.37577.15125.10084.10096.15125.22621.15125.37577v8.52696c0 .0541.02255.1036.06764.1486.04497.0451.09451.0676.14862.0676h8.52699c.1495 0 .2748.0505.3757.1513.1009.101.1513.2262.1513.3758 0 .1495-.0504.2747-.1513.3756s-.2262.1514-.3757.1514z" fill="#fff"/></svg>