<svg fill="none" height="30" viewBox="0 0 30 30" width="30" xmlns="http://www.w3.org/2000/svg" xmlns:xlink="http://www.w3.org/1999/xlink"><clipPath id="a"><path d="m0 0h20.685v18.48h-20.685z" transform="matrix(-1 0 0 1 30 6)"/></clipPath><path d="m0 0h30v30h-30z" fill="#fff" transform="matrix(-1 0 0 1 30 0)"/><g clip-path="url(#a)" fill="#d6b44d" stroke="#d6b44d" stroke-linecap="round" stroke-linejoin="round"><path d="m9.42013 15.2401c7.82997 0 9.70497-2.49 10.25997-4.77.555-2.29498-.855-4.34998-1.92-4.34998s-1.515.96-1.515.96c.735-.81 2.115.93 2.22 2.025.18 1.99498-.24 3.16498-2.49 4.48498-2.265 1.335-6.25497 1.56-6.25497 1.56z" stroke-width=".225"/><path d="m9.42013 15.2397c7.82997 0 9.70497 2.49 10.25997 4.77.555 2.295-.855 4.35-1.92 4.35s-1.515-.96-1.515-.96c.735.81 2.115-.93 2.22-2.025.18-1.995-.24-3.165-2.49-4.485-2.265-1.335-6.25497-1.56-6.25497-1.56z" stroke-width=".225"/><path d="m11.6996 15.2399c10.035.225 11.985 4.545 11.985 4.545 2.595.225 2.925-2.64 2.925-2.64 2.22.57 3.24-1.905 3.24-1.905s-1.02-2.475-3.225-1.905c0 0-.33-2.88-2.925-2.64 0 0-1.95 4.77-11.985 4.545z" stroke-width=".3"/></g></svg>