<svg fill="none" height="14" viewBox="0 0 12 14" width="12" xmlns="http://www.w3.org/2000/svg" xmlns:xlink="http://www.w3.org/1999/xlink"><clipPath id="a"><path d="m0 0h12v13.0154h-12z" transform="matrix(-1 0 0 1 12 .492188)"/></clipPath><g clip-path="url(#a)" fill="#d6b44d" stroke="#d6b44d" stroke-linecap="round" stroke-linejoin="round"><path d="m1.56917 6.99951c3.35077 1.33846 3.09231 4.41229 2.35384 5.12309-.83076.7938-1.56923.5631-1.79076.4431 0 0 .63692-.4062.37846-1.237-.25846-.8307-1.25539-1.0615-1.901541-.5446-.6461544.5169-.803078 1.7816.452311 2.4185.79384.3969 2.60307.3231 3.39692-1.1262 1.24615-2.27997-.96923-4.82766-2.88923-5.06766z" stroke-width=".212308"/><path d="m1.56917 6.99971c3.35077-1.33846 3.09231-4.4123 2.35384-5.12307-.83076-.79385-1.56923-.56308-1.79076-.44308 0 0 .63692.40615.37846 1.23692s-1.25539 1.06154-1.901541.54462c-.6461544-.51693-.803078-1.78154.452311-2.418464.79384-.396923 2.60307-.323077 3.39692 1.126154 1.24615 2.28-.96923 4.82769-2.88923 5.06769z" stroke-width=".212308"/><path d="m1.70788 6.99954s4.91077-.84 6.08307-1.09846c1.17231-.24923 2.83385-.12 4.05235 1.09846-1.2185 1.20923-2.88004 1.34769-4.05235 1.09846-1.1723-.24923-6.08307-1.09846-6.08307-1.09846z" stroke-width=".313846"/></g></svg>