<svg fill="none" height="24" viewBox="0 0 30 24" width="30" xmlns="http://www.w3.org/2000/svg" xmlns:xlink="http://www.w3.org/1999/xlink"><clipPath id="a"><path d="m0 0h30v23.5058h-30z"/></clipPath><g clip-path="url(#a)" fill="#d6b44d"><path d="m15.2069 0c-3.6999 0 0 12.5129 0 12.5129s3.6999-12.5129 0-12.5129z"/><path d="m7.23489 6.40667c-.69211-.18434-1.44243-.27813-2.11514-.03881-.6727.23933-1.24191.8991-1.17723 1.61385.05498.60155.5304 1.09314 1.07051 1.36157.5401.26844 1.14812.36223 1.73674.5013 2.82018.65972 5.35573 2.46122 6.90813 4.90622.5272-3.771-2.9948-7.43533-6.42301-8.34736z"/><path d="m11.543 15.2423c-1.3583-1.284-3.00125-2.3254-4.83501-2.6844-1.83377-.359-3.86805.0388-5.24256 1.3034-1.3745192 1.2678-1.917857 3.4541-1.041402 5.1035.740622 1.4004 2.338292 2.1992 3.919792 2.3059.63713.0421 1.30336-.0194 1.87258-.3104.48835-.2523.88292-.663 1.17076-1.1288.69534-1.119.76326-2.6746-.04851-3.7095-.81178-1.0382-2.55175-1.284-3.47672-.3461-.56921.5757-.74385 1.5039-.42367 2.2477.32018.7439 1.11578 1.2517 1.92432 1.2323-.47219.4236-1.1934.4948-1.78525.2716-.59185-.2231-1.0608-.705-1.38099-1.2516-.38486-.6598-.56597-1.4877-.27166-2.1895.25873-.621.84734-1.0511 1.4683-1.3163 2.35123-.9961 5.17141.1067 6.91142 1.9761 1.7399 1.8661 2.639 4.3467 3.4702 6.7593-.0711-.207.2167-.9088.249-1.1416.055-.414.0777-.8312.0615-1.2452-.0227-.6759-.2038-1.2451-.3558-1.8855-.3848-1.6268-.9476-2.8105-2.1895-3.9877z"/><path d="m22.7687 6.40676c-3.4282.90879-6.9502 4.57634-6.4231 8.34734 1.5524-2.445 4.088-4.2464 6.9082-4.9062.5886-.13907 1.1966-.22963 1.7367-.5013.5401-.26843 1.0156-.76002 1.0705-1.36158.0647-.71474-.5013-1.37128-1.1772-1.61384s-1.423-.14554-2.1151.03881z"/><path d="m23.2927 12.5586c-1.8338.359-3.4767 1.4004-4.8351 2.6844-1.2419 1.174-1.8079 2.3577-2.1895 3.9877-.152.6436-.3331 1.2128-.3558 1.8855-.0161.4172.0065.8344.0615 1.2452.0323.2328.3202.9379.249 1.1416.8344-2.4127 1.7303-4.8933 3.4703-6.7594 1.7399-1.8661 4.5601-2.9722 6.9113-1.976.621.2619 1.2096.6921 1.4684 1.3163.2943.705.1099 1.533-.2717 2.1895-.317.5466-.7891 1.0284-1.381 1.2516-.5918.2232-1.3163.152-1.7853-.2717.8086.0194 1.6042-.4883 1.9244-1.2322.3202-.7438.1455-1.672-.4237-2.2477-.925-.9379-2.6649-.6921-3.4767.346-.8118 1.0382-.7439 2.5906-.0485 3.7096.291.4657.6856.8765 1.1707 1.1287.5692.2943 1.2322.3558 1.8726.3105 1.5815-.1067 3.1792-.9088 3.9198-2.3059.8765-1.6495.3299-3.839-1.0414-5.1035-1.3745-1.2678-3.4088-1.6624-5.2426-1.3034z"/></g></svg>