<svg fill="none" height="20" viewBox="0 0 16 20" width="16" xmlns="http://www.w3.org/2000/svg"><g fill="#fff"><path d="m12.7015.167725h-6.53364-.50629l-.35776.357725-4.946085 4.94639-.357725.35773v.50605 10.19768c0 1.8189 1.47975 3.299 3.29903 3.299h9.40247c1.8187 0 3.2985-1.4801 3.2985-3.299v-13.06655c0-1.81927-1.4798-3.299025-3.2985-3.299025zm2.0773 16.365475c0 1.1475-.93 2.0775-2.0773 2.0775h-9.40247c-1.14776 0-2.07776-.93-2.07776-2.0775v-10.19762h3.21531c.95576 0 1.73128-.77498 1.73128-1.73101v-3.21534h6.53364c1.1473 0 2.0773.92999 2.0773 2.07752z"/><path d="m4.77112 9.875h-1.09572c-.20863 0-.3336.1357-.3336.3389v2.8327c0 .2454.16146.4071.38564.4071.21935 0 .38077-.1617.38077-.4071v-.8605c0-.021.01072-.0314.03165-.0314h.63126c.7718 0 1.23626-.4696 1.23626-1.1373.00003-.6782-.45909-1.1424-1.23626-1.1424zm-.04716 1.6171h-.5841c-.02093 0-.03165-.0105-.03165-.0311v-.8923c0-.0209.01072-.0313.03165-.0313h.5841c.32339 0 .51646.1931.51646.48.00004.2869-.19307.4747-.51646.4747z"/><path d="m7.77555 9.875h-.83989c-.20863 0-.33361.1357-.33361.3389v2.8746c0 .2035.12494.3338.33361.3338h.83989c.75623 0 1.22607-.24 1.41377-.819.06759-.2035.10458-.4486.10458-.9547 0-.506-.03702-.7511-.10458-.9546-.18774-.579-.65754-.819-1.41377-.819zm.67846 2.4623c-.08903.2816-.34432.4017-.6994.4017h-.35449c-.02094 0-.03165-.0104-.03165-.0313v-2.118c0-.0209.01071-.0314.03165-.0314h.35449c.35508 0 .61037.1201.6994.4017.03649.1202.06222.3288.06222.6887s-.02577.5685-.06222.6886z"/><path d="m12.0386 9.875h-1.7211c-.2086 0-.3341.1357-.3341.3389v2.8327c0 .2454.162.4071.3862.4071.2188 0 .3808-.1617.3808-.4071v-1.012c0-.0207.0101-.0311.0311-.0311h1.0019c.2241 0 .3545-.1357.3545-.3288s-.1304-.3285-.3545-.3285h-1.0019c-.021 0-.0311-.0105-.0311-.0314v-.7461c0-.0209.0101-.0313.0311-.0313h1.2571c.2141 0 .3551-.1408.3551-.3285 0-.1931-.1411-.3339-.3551-.3339z"/></g></svg>