<svg fill="none" height="11" viewBox="0 0 8 11" width="8" xmlns="http://www.w3.org/2000/svg"><path d="m4.95846 7.98195h-1.63019c-.00364-.2347-.00728-.37662-.00728-.42938 0-.52945.08733-.96429.26199-1.30452.17467-.34023.52399-.72412 1.0498-1.15169.52582-.42756.83875-.70593.94064-.83875.15829-.20923.23653-.43847.23653-.69137 0-.34933-.1401-.64953-.41847-.89879s-.65499-.3748-1.12986-.3748c-.47486 0-.83874.12918-1.14441.38935-.30566.26018-.51853.65681-.63315 1.1899l-1.652029-.20196c.047305-.76415.371159-1.41186.975209-1.94495.60404-.53309 1.39549-.79872 2.37615-.79872 1.03161 0 1.85216.26927 2.46348.80964.61133.54036.91517 1.16806.91517 1.88309 0 .39663-.1128.77143-.33659 1.12622-.22379.35478-.70229.83511-1.43552 1.44643-.38026.31476-.61496.56948-.70593.76052-.09097.19103-.13282.5349-.12554 1.02978zm-1.63201 2.41805v-1.79763h1.79758v1.79763z" fill="#fff"/></svg>