<svg fill="none" height="159" viewBox="0 0 290 159" width="290" xmlns="http://www.w3.org/2000/svg" xmlns:xlink="http://www.w3.org/1999/xlink"><clipPath id="a"><path d="m0 0h290v158.114h-290z"/></clipPath><g clip-path="url(#a)" fill="#fff"><path d="m60.0621 77.9906c.4761 1.616.1071 3.5854-1.077 4.7324-1.1852 1.1471-3.1669 1.2202-4.2202-.0051-1.0367-1.2068-.7502-3.4514.6081-4.247.0216-.0124.0608-.1206.0608-.1206-2.0354-1.0038-4.3068.641-5.0179 2.8135-.6761 2.0704-.1319 4.3882.9677 6.0938 4.01 6.2195 13.718 4.4665 17.4084-1.6562 3.7616-6.2422.8781-14.0364-5.1765-17.3383-5.0117-2.7331-11.2168-2.9578-16.7479-2.2848-7.9055.9615-16.7818 4.0079-24.7543 7.5737 1.3274-5.3508 4.6571-19.1316 5.2363-22.0563.641 2.867 3.2968 13.4706 3.9935 16.115 4.4005-1.516 8.1374-2.4723 11.2023-3.0711l-6.7626-24.7657c-5.5311 3.9997-12.3864 4.1213-17.7279 4.5984v.4061s2.2466.1855 3.5761 1.9509c1.1449 1.5211.9584 3.5359.5864 5.2291l-6.1371 24.7461c-2.0745 1.147-3.9811 1.9993-6.39263 2.0787-2.92888.0968-3.71624-3.1886-1.95499-4.6809 1.21401-1.0295 3.22572-.8574 4.51182.6142 1.1264-2.4239-3.31945-6.3545-7.31292-4.9478-3.993468 1.4068-5.838193 6.8307-4.493295 10.1141 1.240805 3.0309 4.015105 5.3816 8.522835 5.0838 1.44998-.0958 3.81518-.9296 5.61148-2.1797l-1.6335 6.5874c-1.2006 4.8386-3.33903 7.7809-4.96321 8.898-1.62418 1.1172-3.08244 1.6695-3.08244 1.6695v.9022h17.76915v-.8568c-4.651-1.4696-5.6496-5.8557-4.2831-11.3662.1216-.4895 1.1275-4.5757 2.2961-9.2896.9492-.4132 2.2354-.8801 2.2354-.8801 2.2889-.8327 4.8055-1.6644 7.4026-2.4971 5.4733-1.6963 11.0405-2.9402 16.5664-3.5503 4.415-.4885 11.6712.4566 13.1862 5.5898z"/><path d="m86.0045 78.0391c-.001-.0484-.002-.0958-.0031-.1443-.0041-.1546-.0092-.3091-.0154-.4648 0-.0165-.0011-.0329-.0021-.0494-.0299-.6936-.0845-1.3965-.168-2.1096 0-.0021 0-.0031 0-.0052-.0196-.1659-.0391-.3318-.0618-.4988-.8409-6.3545-3.5472-11.2744-5.4342-13.3737-2.9217-3.2453-6.438-4.9869-12.1484-4.8952-5.3889.0876-15.5091.0288-17.698.0072v.406s4.6767 1.2542 4.7664 4.7901c.0093.3577.0175 1.0574.0247 2.0107 3.5514.3432 6.6895 1.247 9.3586 2.7032.4422.2411.8688.5039 1.2821.7853v-6.7101c0-1.2088 1.1295-2.225 2.865-1.281 3.3627 2.7352 6.9656 8.4115 7.1975 18.7853.0051.2277.0062.4503.0072.674-.001.2236-.0021.4462-.0072.674-.2319 10.3748-3.8348 16.0501-7.1975 18.7853-1.7355.944-2.865-.0722-2.865-1.281v-5.5713c-2.1209 1.2552-4.5778 1.9735-7.0718 1.9735-1.2522 0-2.4497-.1875-3.5658-.5431-.0072 1.1769-.0165 2.0333-.0278 2.4435-.0278 1.0893-.2886 2.0302-.9317 2.8454-4.1552-2.8959-4.7303-8.0488-6.4977-14.1735l-2.4868-9.1071c-3.6997.5008-7.5448 1.3078-11.4795 2.3981 1.1058 4.2017 2.0168 7.6634 2.0168 7.6634.3463 1.317.6853 2.6063 1.0099 3.8378 1.4439 5.4909.369 9.9018-4.283 11.3713v.8569s33.036-.045 35.5836-.004c5.7104.092 9.2267-1.6495 12.1484-4.8948 1.887-2.0992 4.5933-7.0192 5.4342-13.3737.0227-.167.0422-.3329.0618-.4988 0-.0021 0-.0031 0-.0051.0825-.7132.1371-1.4171.168-2.1096 0-.0165.001-.033.0021-.0495.0062-.1556.0113-.3102.0154-.4648.0011-.0484.0021-.0958.0031-.1443.0021-.1236.0052-.2473.0062-.3699 0-.0856 0-.1721 0-.2577 0-.0855 0-.1721 0-.2576 0-.1227-.0031-.2463-.0062-.37z"/><path d="m191.085 50.7639c-20.661-12.8275-31.448 5.731-18.356 9.6791-2.884-3.7224 2.366-11.9886 14.514-5.225v29.5105c.042 7.1738-3.66 6.8523-4.108 6.8739v.4102c7.048 2.0312 13.023 5.2106 18.774 8.4884v-.5757c-1.216-.8378-4.278-2.9206-4.108-8.3631v-31.048c8.757 2.6671 18.353 1.4592 18.974-8.1467-6.82 8.8361-17.641 3.3926-25.691-1.6046z"/><path d="m266.161 102.084-.002-.004c-.246-.39-.478-.793-.694-1.204-.44-.812-.813-1.6164-1.103-2.4131-.745-1.8746-1.285-3.7265-1.767-5.1312-2.758-8.0446-6.551-11.2621-9.772-12.5493 0 0-.001 0-.001-.001 2.606-.5359 8.864-2.7774 8.864-11.9557 0-11.5949-10.096-12.2782-13.609-12.2782l-25.005-.0515v.404c1.457.3895 3.47 1.7138 3.47 4.2418 0 2.9876.024 24.0051.024 24.0051 0 8.0292-1.732 10.9839-7.371 10.9839-7.092 0-6.699-7.2233-6.699-11.156v-22.7241c-1.948.9409-4.306 1.4397-7.007 1.4397-.998 0-2.03-.0701-3.078-.201.018 7.549.023 22.6376.023 22.65 0 2.8639-.15 5.7887.798 8.5341.693 2.0096 1.903 3.7142 3.859 4.9993l.166.1144c5.128 3.5878 14.844 2.7378 16.781 1.7968.25-.083.473-.174.681-.267.161-.066.309-.134.444-.207 2.159-1.1414 3.751-3.016 4.635-5.2822.974-2.5012 1.088-8.528 1.085-11.1807 0 0 .004-21.2659.01-23.5063-.001-1.1038.603-2.0777 1.387-2.8217.012 0 .022.002.033.002 2.246.5153 2.479 3.877 2.479 6.4576l.039 26.529c0 1.5829.006 3.4132.014 5.0477l-.007-.0319c-.061 5.9885.204 12.5345-3.168 15.0705-.809.608-1.993 1.196-3.436.857-4.077-.959-4.155-6.417-.421-7.661-6.802-2.145-11.016 3.385-8.35 7.438-.902-.284-1.844-.615-2.833-1.001-12.258-5.554-26.619-17.6973-43.451-18.6341-12.118-.6771-23.603 5.058-22.057 16.6661 1.462 11.044 20.379 11.293 16.309-2.121-.059 4.447-8.087 5.626-7.392-.923.897-8.461 19.567-7.8015 26.567-4.366-12.735 1.881-4.038 19.213 4.853 10.56-8.503-2.01-1.842-10.445 7.389-6.483 8.417 3.615 11.846 5.47 16.813 7.899 5.875 2.872 29.37 10.204 29.37-14.2593 0-.0226 0-.0422 0-.0649l-.017-16.9292c.624-.0351 1.856.2339 3.454 2.2734.026.034.05.0711.077.1062 1.116 1.8107 1.724 4.0676 2.388 6.001.476 1.3882.968 2.7712 1.469 4.1511.021.067.041.1361.063.202.023.0712.062.1423.091.2144.278.7606.553 1.5211.84 2.2786.72 1.9014 4.694 13.4747 19.134 11.7657 2.37-.28 6.149-1.925 7.531-4.202-2.034 1.019-4.507 1.491-6.518 1.491-3.464 0-5.763-2.004-7.382-4.569zm-13.799-31.9463c0 9.0474-5.318 9.812-6.404 9.1803-.822-.4761-.945-1.7293-.945-3.2638v-13.3243c0-1.5345.123-2.7867.945-3.2638 1.086-.6307 6.404.134 6.404 9.1803z"/><path d="m165.78 35.5969c.558.1834 1.326.0999 1.544-.4246.866-2.8145.75-6.0845.866-9.2309 0-.2988.188-.8656.368-.6152 1.33 2.5362 2.679 4.7973 4.137 7.1532.741 1.1913 1.399 2.3373 2.784 2.2611 1.361-.1835 2.469-1.2213 3.083-2.3219 1.548-4.3995.557-9.5359-1.664-13.2078-.803-1.2202-1.733-2.8094-3.211-3.1783-.672-.0907-.596.8275-.437 1.3449.805 3.3597 2.04 6.6039 2.352 10.148.061.7328.305 1.7108-.187 2.326-2.654-3.237-4.205-7.0913-7.41-9.9079-.507-.4112-1.127.0083-1.42.5555-1.484 2.9928-2.055 6.2916-2.284 9.7801-.125 1.8633-.498 4.3408 1.479 5.3178z"/><path d="m146.018 24.8986c.169.5998.861 1.2254 1.483 1.4037 4.132.9182 9.447-.1783 12.963 2.5733.434.5452.046 1.1295-.49 1.4037-3.267 1.3449-6.739 2.3023-10.569 1.5036-.517-.134-1.286-.6709-1.038-1.2007 1.54-2.3239 4.135-.0608 6.05.2464.956.2061 3.088-.0608 4.138-1.1594.331-.6215-.829-1.0038-1.606-1.2233-2.72-.7328-6.545-1.5912-9.074.1216-.722.4792-1.298 1.9529-.807 3.1175 2.099 3.3617 6.129 4.4943 9.882 3.911 2.555-.3937 5.621-1.2821 6.237-4.1553.293-1.8189.185-3.7894-1.361-5.0776-3.58-2.3827-8.713-1.0986-12.659-2.6878-.126-.1834-.045-.2442.186-.3658 4.2-1.2841 9.142-.7956 13.462-1.8334.622-.1876 1.208-1.1779.931-1.6499-.623-.6153-1.423-.7163-2.284-.8595-5.231-.8771-11.123-.6081-14.885 2.9979-.659.7028-.619 2.0168-.558 2.934z"/><path d="m180.23 32.8473c.466 1.6633 1.276 3.4616 2.476 3.7306 3.827.7328 6.979-1.4057 9.874-3.5482.502-.504-.458-2.0375-.797-2.0797-2.595-.3082-5.005.7956-7.597.7348.249-1.2213.563-2.2704 1.182-3.3102 2.114-.3102 5.265.1309 6.534-.8503.371-.4256.22-1.7633-.119-1.956-1.608-.5493-3.715-.3421-5.326-.2514.257-.8183.528-1.7314.816-2.559 1.356.1217 2.714.0361 3.952-.0659 1.317-.1031 2.905.1226 3.828-.9131.271-.5246-.771-1.9447-1.358-2.3827-.587-.4431-.839-.6307-1.173-.676-2.454-.3412-7.662.676-11.301 1.2212-.495.0608-.373.4905-.248.8585.307 1.4675 1.915 1.2233 2.963 1.7746-.432.977-.673 2.0137-1.296 2.932-.551.1855-1.483.0608-1.541.9182-.055.5194.369.8636.325 1.549-.576 1.4531-1.573 2.9814-1.194 4.8715z"/><path d="m142.127 18.9056c-.687-.0608-.92.9739-1.049 1.4676-.558 3.6657-.786 7.7653-.681 11.7413.043 1.4809-.182 3.4823 1.67 3.8502.74.1804 2.117 0 2.223-.4905.368-4.6459-.128-9.843-.494-14.6115-.036-.4895-.683-1.7128-1.669-1.9571z"/><path d="m91.3604 5.76086c.3071-.18344.8636-.18344.9244-.6101-.4318-.91824-1.6664-.61113-2.3466-1.10168.371-.36791.9285-.24424 1.3603-.49055 12.2265-1.77052 24.2665 1.97045 33.8415 8.80727 5.065 3.6152 9.886 8.9866 8.217 15.4637-2.185 6.2628-10.748 7.2254-17.417 7.1574-1.483-.0186-2.756-.2484-4.076-.7369.045-3.9069-.033-8.7537-.102-11.2477 2.751-.1587 8.069.6709 11.588 2.1993.681.439-1.297 1.7705-2.039 2.4486-.407.4792 1.096.9358 2.1.8554 1.544-.2484 2.841-1.4696 3.462-2.8763.432-1.3429-.22-2.392-1.054-3.301-3.766-3.1803-8.946-3.1648-14.01-3.2844-.055-1.7654-.093-4.4016-.432-5.9866-.339-1.5778-1.119-2.2806-2.29-2.5269-.928 1.0398-1.076 2.3898-1.236 3.7914-.199 1.7087-.38 3.5668-.556 5.1354 0 0-2.757.5338-4.386.9141-1.628.3844-8.021 2.4115-7.4727 5.6249.7255 2.8567 5.3117 6.3009 8.4597 8.3177 1.027.6554 2.072 1.2305 3.214 1.7705.128 1.483.367 2.9341 1.356 4.0976.319.2896 1.435.1762 2.288 0 1.046-.4287 1.078-1.5459 1.172-2.3868 1.103.1937 2.418.4977 4.33.7368 7.657.9451 17.036-1.2222 21.239-8.8031 3.52-7.2769-2.593-14.3281-7.179-18.2597-.643-.5452-2.922-2.38783-4.123-3.14015-10.027-6.23703-22.975-10.63448-35.5736-7.03057-1.6067.55136-2.3487 2.20234-2.595 3.66678.8049.97904 2.0395.7956 3.337.7956zm15.6246 27.02574c-3.722-1.1007-7.6552-3.1783-10.2533-6.6008-.608-.9564 1.6695-1.5304 2.7805-1.8375 2.4538-.6761 5.0638-.977 7.7208-1.1017-.223 3.3937-.271 7.1604-.248 9.541z"/><path d="m138.237 17.0136c1.17.6081 1.426-.7667 2.037-1.2861 3.457 1.3449 6.794-.2412 9.387-2.2611 2.039-1.7108 4.511-3.79355 3.524-6.60392-.56-1.10065-1.731-1.77464-2.903-1.77464-1.173-1.52834-3.027-2.01374-4.883-1.77053-3.769.67091-7.903 2.93404-9.136 6.78429-.31 1.5314.059 2.9371 1.174 3.977-.127.9429-.25 2.261.801 2.934zm5.53-6.5493c1.805-1.74369 4.254-3.91614 6.571-3.17413.282.09275.441.20302.619.67606.407 1.07179-.987 2.74237-2.315 3.52867-2.041 1.1017-4.289 1.9468-6.879 1.6458.334-.9429.991-1.7045 2.004-2.6764zm-3.862-2.07348c.841-.81621 2.037-1.58914 3.271-1.52834-1.736 1.28204-3.203 2.8887-4.384 4.64892-.619-1.1017.371-2.2044 1.113-3.12058z"/><path d="m195.978 32.969c-1.727 4.5221-3.213 9.17-3.522 14.2435.066 1.2841 1.116 2.3868 2.229 3.0608.366.1773 1.257.6678 1.356.2422.863-4.888 2.1-9.5998 3.825-14.1869 1.636.2082 2.639.167 4.816-.7883 3.709-1.7726 7.233-5.627 7.42-9.8461.052-2.2632-.807-4.4068-2.78-5.6909-.64-.3936-1.298-.203-1.917.0639-3.83 2.2024-8.451 7.3016-9.513 9.5308-.177-4.3336 3.524-7.0852 3.829-11.0591.008-.9904-1.341.0763-1.786.6709-3.214 3.7935-6.61 8.8083-3.956 13.7592zm12.907-9.9059c.492-.472.807 1.8963.682 2.8784-.434 2.8691-4.01 5.3013-5.807 5.8052-.602.168-.871.168-1.54.1835 1.017-2.3446 3.765-6.3597 6.665-8.8671z"/><path d="m134.018 97.991c-.839-.3834-.967-1.3769-.967-2.6002v-15.2205c0-.9728.162-1.3624.647-1.5654.893-.3751 5.802 1.013 7.524 8.5857h.279v-20.3095h-.279c-1.723 7.5726-6.631 8.9598-7.524 8.5847-.485-.2031-.647-.5926-.647-1.5665v-11.9361c0-1.2223.134-2.2003.967-2.6001 1.444-.6905 9.024.2659 13.065 10.6417h.279v-13.5119l-38.27.0526v.4431c3.499 1.1058 4.25 4.6067 3.222 8.7527-.229.9223-6.316 25.7313-6.753 27.9326-.482-2.157-6.9193-27.002-7.1626-27.9295-1.0862-4.1316-.2782-7.65 3.2236-8.7558v-.4442h-22.822v.4432c4.5109 1.1027 7.4068 5.8238 8.4806 9.5792l9.3556 34.2662c4.6758-.012 11.3768 0 11.3768 0l8.67-35.0886c1.313-4.5562 2.224-6.4627 3.8-7.5675 1.3.9697 2.09 2.359 2.143 4.7756l.008 14.1477v2.8692l-.008 14.1477c-.084 3.7894-1.971 5.058-4.812 6.1309v.329h.006l-.006.257h29.998v-16.6115h-.279c-4.016 11.0086-11.629 14.629-13.516 13.7685z"/><path d="m152.45 97.3417c.104-.1196.205-.2402.313-.3566 1.865-2.0148 4.357-3.6225 7.27-4.7654l-.013-.5184c-3.518.5895-2.899-5.9464-2.895-8.4084l-.041-12.6039s6.128 10.8571 11.195 19.6736c1.624-.1381 3.301-.168 5.015-.0721 2.827.1577 5.582.5678 8.261 1.2913-.004-10.114-.011-29.5754-.011-30.6533 0-2.357.79-3.3288 2.458-4.0079v-.3752l-9.254-.0268-.008.404c1.457.3896 2.673 1.4933 2.671 3.6699.008 2.9876.015 18.0381.015 18.0381v3.5895l-15.274-25.7262-13.783.0031-.01.371c1.18.2154 4.096.8018 4.103 6.2896-.006 6.5513-.012 34.1841-.012 34.1841z"/><path d="m289.721 84.2225c-4.016 11.0085-11.629 14.6289-13.516 13.7684-.839-.3834-.967-1.3768-.967-2.6001v-15.2205c0-.9729.162-1.3625.647-1.5665.893-.3751 5.802 1.013 7.524 8.5857h.279v-20.3095h-.279c-1.723 7.5726-6.631 8.9598-7.524 8.5847-.485-.2031-.647-.5926-.647-1.5665v-11.9361c0-1.2223.134-2.2003.967-2.6001 1.444-.6905 9.024.2659 13.065 10.6417h.279v-13.5119h-29.548v.3288c2.907 1.0975 4.82 4.2985 4.82 8.2971v28.2459c.076.2278.152.4628.23.705.361 1.1109.769 2.3703 1.263 3.6131l.021.0578c.245.6698.572 1.3861.975 2.1291.181.3434.363.6594.552.9634h22.137v-16.6116h-.279z"/><path d="m104.466 150.394c1.786.087 3.278-.746 4.684-1.664.26-.174.606-.416.502-.799-.174-.294-.242-.693-.625-.815-1.075-.052-2.185.261-3.243.434-.295 0-.59.191-.884.034.242-.624.399-1.284.727-1.873l2.706-.069c.328-.052.676-.034.918-.312.035-.33.07-.746-.034-1.058-.832-.433-2.029-.191-2.965-.225l-.07-.052c.156-.434.225-.902.434-1.319 1.492-.034 2.792.053 4.127-.347.157-.068.242-.225.242-.398-.208-.658-.797-1.353-1.491-1.527-1.474-.121-2.897.174-4.25.347-.71.191-1.578.07-2.22.469-.051.138.122.208.104.33.174.832 1.076.728 1.648.971-.365.624-.295 1.838-1.301 1.786-.572.296-.121 1.006-.105 1.457-.415 1.005-1.057 2.271-.397 3.381.294.572.831 1.144 1.491 1.248"/><path d="m82.0247 149.978c.2772-.104.6585-.174.7461-.52.1031-2.515-.1391-5.081-.2782-7.648-.0526-.433-.2422-.816-.538-1.162-.1567-.104-.3463-.261-.5545-.156-.2257.121-.3122.364-.3998.573-.538 2.757-.5905 5.602-.2247 8.393.2247.502.7977.45 1.248.52"/><path d="m95.1706 149.804c.2422-.087.4339-.346.5019-.572.2257-1.231.1742-2.654.2783-3.869.034-.467.0175-.953.2432-1.334.8152 1.126 1.2305 2.429 2.0292 3.555.5544.642.9192 1.578 1.8198 1.682.885-.139 1.648-.781 1.891-1.647.745-2.584.035-5.395-1.421-7.528-.4-.45-.7986-1.144-1.4396-1.197-.2082.088-.2247.295-.2607.469.3462 1.996 1.2143 3.885 1.3183 5.966.017.382.121.885-.088 1.214l-.1029-.018c-1.0233-1.301-1.6468-2.741-2.6877-4.04-.4504-.469-.7626-1.128-1.3697-1.423-.3473-.157-.608.156-.8162.399-.641 1.265-.8852 2.705-1.1099 4.146.0165 1.352-.5544 2.809.3648 3.937.2422.191.5019.312.8492.26z"/><path d="m85.8573 149.076c1.821.99 4.6479 1.006 6.3823-.19 1.145-.642 1.145-2.047.9883-3.141-.3648-1.318-1.7684-1.733-2.9309-1.907-1.6644-.139-3.3638-.174-4.8736-.695-.034-.051-.034-.121.034-.155 1.9426-.695 4.2841-.555 6.3648-.833.504-.07 1.0069-.087 1.4047-.382.2257-.207.3473-.451.3823-.745-.104-.174-.2772-.174-.4153-.261-2.8969-.78-6.5915-.693-8.9845 1.127-.5029.521-.606 1.214-.5029 1.943.1741.277.3462.554.6585.676 1.718.504 3.7647.192 5.4981.624.7111.175 1.4923.365 1.9261 1.006.0681.226-.0876.434-.2782.591-1.111.623-2.3755.849-3.6771 1.006-.9193-.053-2.1333.26-2.8093-.572-.1031-.261.0185-.538.2772-.677 1.5273-.521 2.6197 1.076 4.181.555.4504-.157 1.11-.209 1.214-.781-.7811-.521-1.6819-.763-2.6537-.867-1.214-.104-2.6197-.312-3.4864.659-.2937.416-.5184.989-.2772 1.526.2772.677.9883 1.127 1.5778 1.492"/><path d="m61.8552 148.209c.1567-1.769.2247-3.607.1907-5.411-1.9591.242-3.9883.312-5.6898 1.162-.1381.139-.2236.348-.1556.539 1.4737 1.89 3.5555 3 5.6537 3.711m.6256 3.745c-.3999-.59-.3648-1.37-.5205-2.063-2.393-1.093-4.8385-2.827-6.3823-5.151-.2607-.451-.0526-1.006.1566-1.406 1.1965-1.301 2.8434-1.733 4.4387-2.221l1.9602-.364c.1917-1.647.1917-3.451.8492-4.942.573-.121.8337.554 1.1274.903.5029 1.127.3133 2.619.5204 3.78 2.7053.017 5.5146.104 7.6304 1.717.4514.502.8502 1.023.7812 1.751-.1216.781-.8667 1.457-1.5603 1.753-.5905.173-1.1615-.036-1.6304-.279.0176-.191.2257-.347.3824-.416.3462-.242.8492-.625.8316-1.058-1.1965-.624-2.5496-.815-3.9017-1.058-.8327-.121-1.6994-.174-2.5836-.192l-.0701.088c-.0165 2.099.2257 6.278.2257 6.278 3.1906.59 6.677.278 9.4524-1.058 1.5778-.833 2.7743-2.428 2.6187-4.214-.2082-3.364-3.1556-5.966-5.8619-7.736-5.2539-3.155-11.3415-5.237-17.9846-4.127-.1741.087-.4163.07-.5194.242.2773.311.8667.018 1.144.381.0855.105.2607.209.1566.348-.642.364-1.5263.242-2.1848-.035-.1391-.104-.2772-.313-.1917-.502.3298-.937 1.0935-1.874 2.1694-1.96 5.6877-1.44 11.463.207 16.3181 2.548 3.7461 1.77 7.4582 4.909 9.2092 8.742.9182 2.116.3287 4.684-1.1615 6.347-2.1683 2.238-4.9787 3.086-7.9777 3.365-1.8385.052-3.6245-.156-5.3074-.521-.0856.487-.0691 1.094-.606 1.302-.5215-.053-1.215.295-1.5263-.243"/><path d="m79.5964 136.381c.7977-.832 1.6118-1.854 2.5146-2.602 0-.035.0165-.07-.0175-.086-1.1275.225-2.4105 1.111-2.6012 2.34l.1041.347zm3.8327.746c1.214-.365 2.8094-.972 3.0515-2.463-.034-.191-.0855-.451-.2772-.606-.2607-.209-.7286-.122-1.0223-.053-1.5273.502-2.9145 1.839-3.8678 3.174.6586.172 1.4212.103 2.1158-.052zm-4.18 2.185c-.3813-.348-.4504-.92-.3112-1.405-.538-.625-.8667-1.44-.7286-2.22.2947-1.44 1.6643-2.55 2.9134-3.208 1.2655-.591 3.0185-1.023 4.3717-.296.2246.157.3978.416.5544.607.6081-.016 1.144.261 1.5088.745.4339.608.2607 1.597-.1041 2.186-1.8025 2.081-4.1965 4.041-7.1099 3-.2257.261-.2608.695-.6586.781-.1741 0-.3297-.035-.4338-.191"/><path d="m117.68 146.647c1.025-.901 1.665-2.167 1.249-3.538-.07-.139-.156-.294-.346-.278-1.63 1.422-2.688 3.174-3.694 4.909 1.058 0 1.943-.538 2.792-1.094m-8.186 9.61c.07-2.514.867-4.734 1.597-6.989l.365-.971c-1.493-2.827.572-5.74 2.497-7.926.19-.156.382-.365.623-.242.261.503-.07.988-.157 1.456-.798 1.509-1.976 2.915-1.925 4.752l.053.052c1.526-1.943 3.227-4.041 5.376-5.273.329-.138.712-.138 1.024 0 1.265.885 1.664 2.446 1.404 3.868-.398 2.341-2.74 4.336-4.856 5.065-.59.121-1.265.225-1.873.087-.989 2.532-1.63 5.168-2.098 7.908-.382.225-.728-.138-1.058-.312-.503-.399-.885-.885-.971-1.474"/><path d="m156.547 144.872c0 1.348-.167 2.976 1.061 3.533.586.279 1.506.302 2.036 0 1.229-.697 1.089-2.114 1.089-3.348v-13.528h2.205v13.157c0 1.651.25 3.951-2.122 5.114-1.311.651-3.376.627-4.66 0-2.009-.953-1.814-2.859-1.814-4.3v-13.971h2.204v13.343z"/><path d="m169.303 132.156v-.627h2.204v18.526h-2.204z"/><path d="m180.542 146.127c.531-1.324-.334-2.58-1.367-4.022l-1.171-1.603c-1.563-2.14-2.652-3.883-1.479-5.975.948-1.651 3.126-2.72 4.548-3.254l.92 1.533c-1.506.582-2.985 1.349-3.487 2.767-.419 1.139.278 2.207 1.338 3.673l1.34 1.79c1.814 2.58 2.623 3.951 1.144 6.346-.837 1.418-3.069 2.557-4.799 3.045l-.976-1.604c1.478-.511 3.376-1.163 3.989-2.697"/><path d="m194.254 145.079h-3.935v3.21h4.38v1.766h-4.38-2.204v-17.899-.627h6.139v1.418.488h-3.935v9.9h3.935z"/><path d="m240.318 131.528v.629 17.898h2.205 4.38v-1.766h-4.38v-3.209h3.933v-1.744h-3.933v-9.901h3.933v-.489-1.418z"/><path d="m219.228 132.157v-.627h2.205v18.527h-2.205z"/><path d="m233.186 144.059v-2.045l-4.185-5.16v.696 12.159.348h-2.205v-18.388-.535l6.39 7.672v-7.305h1.786.418v18.556h-2.204z"/><path d="m136.304 133.047c-4.061 1.773-5.796 5.017-5.77 7.887.057 2.706 1.57 5.716 5.686 7.678v1.89c-4.313-1.003-7.085-4.318-7.785-7.725-.673-3.289.532-7.631 4.843-10.337.589-.351 1.793-.957 3.025-1.33v1.937z"/><path d="m143.818 144.732c2.009-1.138 3.098-2.975 3.322-4.579.25-1.767-.866-4.533-3.322-6.09zm-2.204 5.323v-18.945c2.791.628 5.917 2.604 7.171 5.625.976 2.303.696 4.975-1.004 7.253-.475.605-.865 1.07-1.646 1.72l2.902 4.347h-2.456l-2.316-3.323c-.141.115-.306.185-.447.232v3.091z"/><path d="m214.925 148.272v1.739h-3.897-2.198v-17.855-.626h2.198v16.742z"/></g></svg>