<svg width="181" height="67" viewBox="0 0 181 67" fill="none" xmlns="http://www.w3.org/2000/svg">
<g clip-path="url(#clip0_180_1182)">
<path d="M111.616 9.14605L111.811 9.35105C111.696 9.21605 111.581 9.08605 111.466 8.95605C111.516 9.02105 111.566 9.08105 111.616 9.14605Z" fill="white"/>
<path d="M52.6255 9.66145C52.5705 9.60145 52.5205 9.54145 52.4655 9.48145V9.50645C52.4655 9.50645 52.4805 9.52645 52.4905 9.53645C52.5355 9.58145 52.5805 9.62145 52.6255 9.66645V9.66145Z" fill="white"/>
<path d="M78.5805 13.2575C78.4005 12.7375 78.3055 12.1825 78.3055 11.6025C78.3055 10.0175 78.9955 8.4175 80.2005 7.2125C81.4055 6.0075 83.0055 5.3175 84.5905 5.3175C85.9155 5.3175 87.1305 5.8025 88.0155 6.6875C88.4755 7.1475 88.8205 7.6975 89.0505 8.2925C96.9755 4.6125 104.661 1.3875 111.466 8.9575C101.381 -3.9625 90.0805 -0.332499 77.9855 5.5625L71.7805 8.5775C65.8055 11.4025 58.0855 15.0775 52.6255 9.6625C60.4905 18.7675 69.2805 17.2025 78.5805 13.2575Z" fill="white"/>
<path d="M81.3454 16.09L80.5354 16.485C74.5554 19.31 66.8404 22.985 61.3804 17.565C68.3004 25.575 75.9354 25.33 84.0054 22.465C83.4404 21.31 83.1404 20.035 83.1404 18.71C83.1404 17.91 83.2504 17.135 83.4654 16.38C82.7254 16.43 82.0054 16.33 81.3504 16.085L81.3454 16.09Z" fill="white"/>
<path d="M61.2405 17.4357C61.2855 17.4807 61.3305 17.5207 61.3755 17.5657C61.3255 17.5057 61.2705 17.4457 61.2205 17.3857V17.4107C61.2205 17.4107 61.2305 17.4307 61.2405 17.4407V17.4357Z" fill="white"/>
<path d="M105.11 11.6121C105.11 12.2021 105.011 12.7671 104.826 13.2922C110.241 11.5522 115.44 11.5572 120.21 16.8572C115.09 10.2972 109.65 8.00215 103.96 8.11215C104.7 9.16215 105.11 10.3921 105.11 11.6121Z" fill="white"/>
<path d="M120.56 17.2564C120.445 17.1214 120.325 16.9864 120.21 16.8564C120.26 16.9214 120.31 16.9814 120.36 17.0464L120.555 17.2514L120.56 17.2564Z" fill="white"/>
<path d="M129.495 25.1471C129.38 25.0121 129.265 24.8821 129.145 24.7471C129.195 24.8121 129.245 24.8721 129.295 24.9371L129.495 25.1421V25.1471Z" fill="white"/>
<path d="M70.1506 25.2764V25.2964C70.1506 25.2964 70.1605 25.3164 70.1705 25.3264C70.2155 25.3714 70.2605 25.4114 70.3055 25.4564C70.2505 25.3964 70.2006 25.3364 70.1456 25.2764H70.1506Z" fill="white"/>
<path d="M129.145 24.7513C120.35 13.4863 110.63 14.8063 100.265 19.2413C100.14 21.3313 99.2655 23.2813 97.7705 24.7763C96.1505 26.3963 94.0005 27.2863 91.7105 27.2863C89.8805 27.2863 88.1405 26.7163 86.6905 25.6613C81.2405 28.0963 74.9605 30.0663 70.3105 25.4563C79.1605 35.6963 89.1755 32.4413 99.7705 27.4763L105.46 24.6763C113.835 20.7813 121.975 16.7813 129.145 24.7513Z" fill="white"/>
<path d="M98.4854 15.0709C100.115 15.7259 101.9 15.5109 103.06 14.3509C104.695 12.7159 104.455 9.83086 102.53 7.90586C100.605 5.98086 97.7204 5.74586 96.0854 7.37586C94.9354 8.52586 94.7154 10.3109 95.3554 11.9209C95.4104 12.0659 95.3554 12.0359 95.2704 11.9909C94.2054 11.4259 92.9954 11.1059 91.7054 11.1059C90.4154 11.1059 89.2004 11.4259 88.1354 11.9909C88.0154 12.0559 88.0004 12.0459 88.0504 11.9109C88.6954 10.2859 88.4754 8.51586 87.3204 7.36586C85.6854 5.73086 82.8004 5.97086 80.8754 7.89586C78.9504 9.82086 78.7154 12.7059 80.3504 14.3409C81.5104 15.5059 83.3004 15.7259 84.9404 15.0559C85.0704 15.0009 85.0254 15.0809 85.0054 15.1109C84.4204 16.1909 84.0954 17.4109 84.0954 18.7209C84.0954 22.9209 87.5004 26.3259 91.7004 26.3259C95.9004 26.3259 99.3054 22.9209 99.3054 18.7209C99.3054 17.4359 98.9854 16.2309 98.4204 15.1609C98.3554 15.0409 98.4254 15.0609 98.4754 15.0759L98.4854 15.0709Z" fill="white"/>
<path d="M54.5055 56.6699C54.3455 56.3999 54.2805 56.0349 53.9305 55.9199C52.9455 55.8699 51.9255 56.1599 50.9555 56.3199C50.6855 56.3199 50.4155 56.4949 50.1455 56.3499C50.3705 55.7749 50.5105 55.1699 50.8155 54.6299L53.3005 54.5649C53.6055 54.5149 53.9205 54.5349 54.1455 54.2799C54.1755 53.9749 54.2105 53.5949 54.1155 53.3099C53.3505 52.9099 52.2555 53.1349 51.3955 53.1049L51.3305 53.0599C51.4755 52.6599 51.5355 52.2299 51.7305 51.8499C53.1005 51.8199 54.2955 51.8999 55.5205 51.5299C55.6655 51.4649 55.7405 51.3249 55.7405 51.1649C55.5505 50.5599 55.0105 49.9249 54.3705 49.7649C53.0155 49.6549 51.7105 49.9249 50.4705 50.0849C49.8205 50.2599 49.0205 50.1499 48.4355 50.5149C48.3905 50.6449 48.5455 50.7049 48.5305 50.8199C48.6905 51.5849 49.5155 51.4899 50.0405 51.7099C49.7055 52.2849 49.7705 53.3999 48.8455 53.3499C48.3205 53.6199 48.7355 54.2749 48.7505 54.6849C48.3705 55.6099 47.7805 56.7699 48.3855 57.7899C48.6555 58.3149 49.1505 58.8399 49.7555 58.9349C51.3955 59.0149 52.7655 58.2499 54.0555 57.4049C54.2955 57.2449 54.6105 57.0249 54.5155 56.6699H54.5055Z" fill="white"/>
<path d="M29.0804 49.9817C28.9354 49.8867 28.7604 49.7417 28.5704 49.8367C28.3654 49.9467 28.2854 50.1717 28.2054 50.3617C27.7104 52.8917 27.6654 55.5017 28.0004 58.0667C28.2054 58.5267 28.7304 58.4817 29.1454 58.5467C29.4004 58.4517 29.7504 58.3867 29.8304 58.0667C29.9254 55.7567 29.7054 53.4017 29.5754 51.0467C29.5254 50.6467 29.3554 50.2967 29.0804 49.9817Z" fill="white"/>
<path d="M44.7905 48.376C44.6005 48.456 44.5855 48.646 44.5505 48.806C44.8655 50.636 45.6655 52.371 45.7605 54.281C45.7755 54.631 45.8705 55.091 45.6805 55.396L45.5855 55.381C44.6455 54.186 44.0755 52.866 43.1205 51.671C42.7055 51.241 42.4205 50.636 41.8605 50.366C41.5405 50.221 41.3005 50.511 41.1105 50.731C40.5205 51.896 40.3005 53.216 40.0905 54.536C40.1055 55.776 39.5805 57.116 40.4255 58.151C40.6505 58.326 40.8855 58.436 41.2055 58.391C41.4305 58.311 41.6055 58.071 41.6655 57.866C41.8755 56.736 41.8255 55.431 41.9205 54.316C41.9505 53.886 41.9355 53.441 42.1455 53.091C42.8955 54.126 43.2755 55.321 44.0105 56.356C44.5205 56.946 44.8555 57.806 45.6805 57.901C46.4955 57.776 47.1955 57.186 47.4155 56.391C48.1005 54.016 47.4455 51.441 46.1105 49.481C45.7455 49.066 45.3755 48.431 44.7905 48.381V48.376Z" fill="white"/>
<path d="M38.1356 51.3671C38.5956 51.3021 39.0606 51.2871 39.4256 51.0171C39.6306 50.8271 39.7456 50.6021 39.7755 50.3321C39.6805 50.1721 39.5205 50.1721 39.3955 50.0921C36.7355 49.3771 33.3455 49.4571 31.1505 51.1271C30.6905 51.6021 30.5955 52.2421 30.6905 52.9121C30.8505 53.1671 31.0106 53.4221 31.2956 53.5321C32.8706 53.9921 34.7505 53.7071 36.3405 54.1071C36.9955 54.2671 37.7105 54.4421 38.1055 55.0321C38.1705 55.2421 38.0256 55.4321 37.8506 55.5721C36.8306 56.1471 35.6706 56.3521 34.4756 56.4971C33.6306 56.4471 32.5155 56.7371 31.8955 55.9721C31.8005 55.7321 31.9105 55.4771 32.1505 55.3521C33.5505 54.8721 34.5555 56.3371 35.9855 55.8621C36.4005 55.7171 37.0056 55.6721 37.1006 55.1471C36.3856 54.6671 35.5555 54.4471 34.6655 54.3521C33.5505 54.2571 32.2606 54.0671 31.4656 54.9571C31.1956 55.3371 30.9905 55.8671 31.2105 56.3571C31.4655 56.9771 32.1156 57.3921 32.6606 57.7271C34.3306 58.6371 36.9255 58.6521 38.5205 57.5521C39.5705 56.9621 39.5705 55.6721 39.4305 54.6721C39.0955 53.4621 37.8056 53.0821 36.7406 52.9221C35.2106 52.7921 33.6505 52.7621 32.2655 52.2871C32.2355 52.2371 32.2356 52.1771 32.2956 52.1421C34.0806 51.5071 36.2305 51.6321 38.1405 51.3771L38.1356 51.3671Z" fill="white"/>
<path d="M17.9655 42.9309C13.5055 40.7809 8.20549 39.2709 2.98549 40.5909C2.00049 40.6709 1.29549 41.5309 0.995487 42.3909C0.915487 42.5659 1.04549 42.7559 1.17049 42.8509C1.77549 43.1059 2.58549 43.2159 3.17549 42.8809C3.27049 42.7559 3.11049 42.6559 3.03049 42.5609C2.77549 42.2259 2.23549 42.4959 1.98049 42.2109C2.07549 42.0509 2.30049 42.0659 2.46049 41.9859C8.55549 40.9659 14.1455 42.8759 18.9705 45.7759C21.4555 47.4009 24.1605 49.7859 24.3505 52.8759C24.4955 54.5159 23.3955 55.9808 21.9455 56.7458C19.4005 57.9708 16.1955 58.2609 13.2705 57.7159C13.2705 57.7159 13.0455 53.8809 13.0605 51.9509L13.1255 51.8709C13.9355 51.8859 14.7355 51.9359 15.4955 52.0459C16.7355 52.2659 17.9805 52.4409 19.0755 53.0159C19.0905 53.4159 18.6305 53.7659 18.3105 53.9859C18.1655 54.0509 17.9755 54.1909 17.9605 54.3709C18.3905 54.5909 18.9155 54.7859 19.4555 54.6259C20.0905 54.3559 20.7755 53.7359 20.8905 53.0159C20.9555 52.3459 20.5855 51.8709 20.1755 51.4059C18.2355 49.9259 15.6555 49.8459 13.1705 49.8309C12.9805 48.7659 13.1555 47.3959 12.6905 46.3609C12.4205 46.0409 12.1805 45.4209 11.6555 45.5309C11.0505 46.9009 11.0505 48.5559 10.8755 50.0659L9.07549 50.4009C7.61049 50.8459 6.10049 51.2459 5.00049 52.4409C4.81049 52.8059 4.62049 53.3159 4.85549 53.7309C6.27049 55.8659 8.51549 57.4559 10.7155 58.4608C10.8605 59.0958 10.8255 59.8158 11.1955 60.3559C11.4805 60.8509 12.1205 60.5309 12.5955 60.5809C13.0905 60.3909 13.0755 59.8309 13.1505 59.3859C14.6955 59.7209 16.3355 59.9109 18.0205 59.8609C20.7755 59.6059 23.3555 58.8259 25.3455 56.7709C26.7155 55.2409 27.2555 52.8859 26.4105 50.9459C24.8005 47.4259 21.3955 44.5459 17.9555 42.9209L17.9655 42.9309ZM10.6255 56.9209C8.70049 56.2709 6.79049 55.2509 5.43549 53.5159C5.37049 53.3409 5.45049 53.1509 5.57549 53.0209C7.13549 52.2409 9.00049 52.1759 10.8005 51.9559C10.8305 53.6109 10.7705 55.3009 10.6255 56.9209Z" fill="white"/>
<path d="M34.1255 45.4617C34.4605 44.9217 34.6205 44.0117 34.2205 43.4567C33.8855 43.0117 33.3955 42.7567 32.8355 42.7717C32.6905 42.5967 32.5355 42.3567 32.3255 42.2117C31.0855 41.5417 29.4755 41.9417 28.3105 42.4817C27.1655 43.0867 25.9055 44.1067 25.6355 45.4267C25.5105 46.1417 25.8105 46.8917 26.3055 47.4667C26.1805 47.9117 26.2405 48.4367 26.5905 48.7567C26.6855 48.9017 26.8305 48.9317 26.9905 48.9317C27.3555 48.8517 27.3905 48.4517 27.5955 48.2167C30.2705 49.1717 32.4655 47.3717 34.1205 45.4617H34.1255ZM26.9155 46.0667L26.8205 45.7467C26.9955 44.6167 28.1755 43.8067 29.2105 43.5967C29.2405 43.6117 29.2255 43.6417 29.2255 43.6767C28.3955 44.3617 27.6505 45.3017 26.9155 46.0667ZM32.0405 43.8867C32.3105 43.8217 32.7405 43.7417 32.9805 43.9367C33.1555 44.0817 33.2005 44.3167 33.2355 44.4917C33.0105 45.8617 31.5455 46.4167 30.4355 46.7517C29.8005 46.8967 29.1005 46.9567 28.4955 46.8017C29.3705 45.5767 30.6455 44.3467 32.0455 43.8867H32.0405Z" fill="white"/>
<path d="M63.0355 50.4114C62.7505 50.2864 62.4005 50.2864 62.0955 50.4114C60.1205 51.5414 58.5605 53.4664 57.1605 55.2514L57.1105 55.2064C57.0655 53.5164 58.1455 52.2264 58.8755 50.8464C58.9555 50.4164 59.2555 49.9714 59.0205 49.5064C58.7955 49.3964 58.6205 49.5864 58.4455 49.7314C56.6805 51.7364 54.7855 54.4114 56.1555 57.0064L55.8205 57.8964C55.1505 59.9664 54.4205 62.0064 54.3555 64.3114C54.4355 64.8514 54.7855 65.2964 55.2455 65.6664C55.5505 65.8264 55.8655 66.1614 56.2155 65.9514C56.6455 63.4364 57.2355 61.0164 58.1405 58.6914C58.6955 58.8164 59.3205 58.7214 59.8605 58.6114C61.8005 57.9414 63.9505 56.1114 64.3205 53.9614C64.5605 52.6564 64.1905 51.2214 63.0305 50.4114H63.0355ZM61.8755 55.4914C61.0955 56.0014 60.2855 56.4964 59.3155 56.4964C60.2405 54.9064 61.2105 53.2964 62.7055 51.9914C62.8805 51.9764 62.9605 52.1164 63.0255 52.2464C63.4055 53.5064 62.8205 54.6664 61.8805 55.4914H61.8755Z" fill="white"/>
<path d="M103.701 41.6114H101.676V54.0314C101.676 55.1614 101.806 56.4664 100.676 57.1064C100.191 57.3864 99.3455 57.3614 98.8055 57.1064C97.6805 56.5964 97.8305 55.1014 97.8305 53.8614V41.6114H95.8055V54.4364C95.8055 55.7564 95.6255 57.5064 97.4705 58.3814C98.6505 58.9564 100.546 58.9764 101.751 58.3814C103.926 57.3164 103.696 55.2014 103.696 53.6864V41.6064L103.701 41.6114Z" fill="white"/>
<path d="M109.545 42.1873V58.6223H111.57V41.6123H109.545V42.1873Z" fill="white"/>
<path d="M119.221 48.696C118.246 47.351 117.606 46.371 117.991 45.326C118.451 44.026 119.811 43.321 121.191 42.786L120.346 41.376C119.041 41.866 117.041 42.846 116.171 44.361C115.096 46.281 116.096 47.881 117.531 49.846L118.606 51.316C119.556 52.641 120.346 53.791 119.861 55.006C119.296 56.416 117.556 57.011 116.196 57.481L117.091 58.951C118.676 58.501 120.726 57.456 121.496 56.156C122.851 53.956 122.111 52.701 120.446 50.331L119.216 48.686L119.221 48.696Z" fill="white"/>
<path d="M128.84 54.0523H132.45V52.4523H128.84V43.3623H132.45V42.9123V41.6123H126.815V42.1873V58.6223H128.84H132.86V56.9973H128.84V54.0523Z" fill="white"/>
<path d="M176.951 56.9973V54.0523H180.561V52.4523H176.951V43.3623H180.561V42.9123V41.6123H174.926V42.1873V58.6223H176.951H180.971V56.9973H176.951Z" fill="white"/>
<path d="M155.565 42.1923V58.6223H157.59V41.6123H155.565V42.1923Z" fill="white"/>
<path d="M168.376 41.586V48.291L162.511 41.251V41.741V58.621H164.536V58.301V47.141V46.501L168.376 51.236V53.116V58.621H170.401V41.586H170.016H168.376Z" fill="white"/>
<path d="M72.0305 51.9367C72.6705 55.0667 75.2205 58.1067 79.1755 59.0267V57.2917C75.3955 55.4917 74.0105 52.7267 73.9555 50.2417C73.9305 47.6067 75.5255 44.6317 79.2505 43.0017V41.2217C78.1205 41.5667 77.0155 42.1217 76.4755 42.4417C72.5155 44.9267 71.4105 48.9117 72.0305 51.9317V51.9367Z" fill="white"/>
<path d="M89.7905 53.0525C91.3505 50.9625 91.6055 48.5075 90.7105 46.3925C89.5605 43.6175 86.6905 41.8075 84.1255 41.2275V58.6175H86.1505V55.7775C86.2805 55.7375 86.4305 55.6725 86.5605 55.5625L88.6855 58.6125H90.9405L88.2755 54.6225C88.9905 54.0225 89.3505 53.5975 89.7855 53.0425L89.7905 53.0525ZM86.1505 53.7325V43.9375C88.4055 45.3675 89.4305 47.9075 89.2005 49.5275C88.9955 51.0025 87.9955 52.6875 86.1505 53.7325Z" fill="white"/>
<path d="M148.04 41.6123H146.02V42.1873V58.5773H148.04H151.615V56.9823H148.04V41.6123Z" fill="white"/>
</g>
<defs>
<clipPath id="clip0_180_1182">
<rect width="180" height="65.815" fill="white" transform="translate(0.970505 0.200195)"/>
</clipPath>
</defs>
</svg>
